<?xml version="1.0" encoding="UTF-8" standalone="no"?>
<!DOCTYPE svg PUBLIC "-//W3C//DTD SVG 1.1//EN" "http://www.w3.org/Graphics/SVG/1.1/DTD/svg11.dtd">
<svg width="100%" height="100%" viewBox="0 0 222 59" version="1.1" xmlns="http://www.w3.org/2000/svg" xmlns:xlink="http://www.w3.org/1999/xlink" xml:space="preserve" xmlns:serif="http://www.serif.com/" style="fill-rule:evenodd;clip-rule:evenodd;stroke-linejoin:round;stroke-miterlimit:2;">
    <g transform="matrix(1,0,0,1,-29.2674,-121.791)">
        <g transform="matrix(2,0,0,2,0,0)">
            <g id="Martech-Avenir" serif:id="Martech Avenir" transform="matrix(1,0,0,1,-0.977639,-83.4423)">
                <g transform="matrix(0.814913,0,0,0.75983,-32.7427,24.6613)">
                    <path d="M60.714,172.28C60.714,171.626 60.695,170.973 60.657,170.32C60.62,169.666 60.576,169.013 60.525,168.36L63.202,168.36L63.202,171.036L63.277,171.036C63.88,170.005 64.716,169.227 65.784,168.699C66.852,168.171 67.913,167.907 68.969,167.907C69.446,167.907 69.955,167.957 70.495,168.058C71.036,168.159 71.557,168.341 72.06,168.605C72.562,168.868 73.033,169.239 73.473,169.717C73.913,170.194 74.283,170.81 74.585,171.563C75.088,170.433 75.885,169.541 76.979,168.887C78.072,168.234 79.209,167.907 80.39,167.907C82.651,167.907 84.322,168.504 85.403,169.698C86.484,170.891 87.024,172.594 87.024,174.805L87.024,186L84.536,186L84.536,175.71C84.536,173.926 84.222,172.556 83.594,171.601C82.965,170.646 81.797,170.169 80.088,170.169C79.158,170.169 78.379,170.351 77.751,170.715C77.123,171.08 76.614,171.563 76.225,172.167C75.835,172.77 75.552,173.454 75.377,174.221C75.201,174.987 75.113,175.785 75.113,176.614L75.113,186L72.625,186L72.625,175.71C72.625,173.926 72.311,172.556 71.683,171.601C71.054,170.646 69.886,170.169 68.177,170.169C68.026,170.169 67.681,170.219 67.141,170.32C66.6,170.42 66.041,170.697 65.463,171.149C64.885,171.601 64.364,172.28 63.899,173.184C63.434,174.089 63.202,175.345 63.202,176.954L63.202,186L60.714,186L60.714,172.28Z" style="fill:url(#_Linear1);fill-rule:nonzero;"/>
                    <path d="M102.855,177.217C102.227,177.217 101.441,177.249 100.499,177.312C99.557,177.375 98.652,177.525 97.785,177.764C96.918,178.003 96.177,178.373 95.561,178.876C94.946,179.379 94.638,180.07 94.638,180.949C94.638,181.527 94.757,182.023 94.996,182.438C95.235,182.853 95.555,183.192 95.957,183.456C96.359,183.72 96.805,183.908 97.295,184.021C97.785,184.134 98.282,184.191 98.784,184.191C99.689,184.191 100.474,184.04 101.14,183.738C101.806,183.437 102.365,183.029 102.817,182.513C103.27,181.998 103.603,181.395 103.816,180.704C104.03,180.013 104.137,179.278 104.137,178.499L104.137,177.217L102.855,177.217ZM104.137,175.182L104.137,174.73C104.137,171.689 102.629,170.169 99.613,170.169C97.553,170.169 95.756,170.86 94.223,172.242L92.715,170.47C94.374,168.762 96.862,167.907 100.179,167.907C101.033,167.907 101.856,168.033 102.648,168.284C103.439,168.535 104.124,168.919 104.702,169.434C105.28,169.949 105.745,170.596 106.097,171.375C106.448,172.154 106.624,173.084 106.624,174.164L106.624,182.042C106.624,182.721 106.656,183.431 106.719,184.172C106.781,184.913 106.85,185.523 106.926,186L104.513,186C104.438,185.573 104.382,185.108 104.344,184.605C104.306,184.103 104.287,183.613 104.287,183.135L104.212,183.135C103.483,184.316 102.623,185.164 101.63,185.68C100.637,186.195 99.425,186.452 97.993,186.452C97.214,186.452 96.46,186.346 95.731,186.132C95.002,185.918 94.355,185.592 93.79,185.152C93.224,184.712 92.772,184.172 92.433,183.531C92.094,182.89 91.924,182.143 91.924,181.288C91.924,179.856 92.295,178.731 93.036,177.915C93.777,177.098 94.707,176.489 95.825,176.087C96.943,175.685 98.137,175.433 99.406,175.333C100.675,175.232 101.837,175.182 102.893,175.182L104.137,175.182Z" style="fill:url(#_Linear2);fill-rule:nonzero;"/>
                    <path d="M112.655,173.863C112.655,173.084 112.636,172.292 112.599,171.488C112.561,170.684 112.53,169.641 112.504,168.36L114.955,168.36L114.955,171.639L115.03,171.639C115.206,171.161 115.457,170.703 115.784,170.263C116.11,169.823 116.506,169.428 116.971,169.076C117.436,168.724 117.976,168.441 118.592,168.228C119.208,168.014 119.905,167.907 120.684,167.907C121.387,167.907 122.003,167.983 122.531,168.133L122.041,170.583C121.714,170.458 121.237,170.395 120.608,170.395C119.654,170.395 118.837,170.577 118.158,170.942C117.48,171.306 116.915,171.771 116.462,172.336C116.01,172.902 115.677,173.511 115.463,174.164C115.25,174.818 115.143,175.446 115.143,176.049L115.143,186L112.655,186L112.655,173.863Z" style="fill:url(#_Linear3);fill-rule:nonzero;"/>
                    <path d="M134.027,170.621L128.939,170.621L128.939,181.024C128.939,181.678 129.002,182.212 129.127,182.626C129.253,183.041 129.429,183.361 129.655,183.588C129.881,183.814 130.151,183.971 130.465,184.059C130.779,184.147 131.125,184.191 131.502,184.191C131.929,184.191 132.369,184.128 132.821,184.002C133.273,183.877 133.688,183.713 134.065,183.512L134.178,185.812C133.248,186.239 132.13,186.452 130.823,186.452C130.346,186.452 129.85,186.389 129.334,186.264C128.819,186.138 128.348,185.899 127.921,185.548C127.494,185.196 127.142,184.718 126.866,184.115C126.589,183.512 126.451,182.721 126.451,181.741L126.451,170.621L122.719,170.621L122.719,168.36L126.451,168.36L126.451,163.384L128.939,163.384L128.939,168.36L134.027,168.36L134.027,170.621Z" style="fill:url(#_Linear4);fill-rule:nonzero;"/>
                    <path d="M151.14,175.823C151.14,174.139 150.637,172.776 149.632,171.733C148.627,170.69 147.22,170.169 145.411,170.169C144.607,170.169 143.828,170.326 143.074,170.64C142.32,170.954 141.66,171.375 141.095,171.903C140.529,172.43 140.077,173.034 139.738,173.712C139.399,174.39 139.229,175.094 139.229,175.823L151.14,175.823ZM139.154,177.858C139.229,178.738 139.443,179.567 139.794,180.346C140.146,181.125 140.611,181.797 141.189,182.363C141.767,182.928 142.433,183.374 143.187,183.701C143.941,184.027 144.757,184.191 145.637,184.191C146.969,184.191 148.118,183.883 149.086,183.267C150.053,182.652 150.788,181.942 151.291,181.138L153.213,182.721C152.158,184.053 150.996,185.007 149.727,185.585C148.458,186.163 147.094,186.452 145.637,186.452C144.33,186.452 143.118,186.22 141.999,185.755C140.881,185.29 139.92,184.643 139.116,183.814C138.312,182.985 137.677,182.005 137.212,180.874C136.747,179.743 136.515,178.512 136.515,177.18C136.515,175.848 136.741,174.617 137.194,173.486C137.646,172.355 138.274,171.375 139.078,170.546C139.882,169.717 140.825,169.069 141.905,168.605C142.986,168.14 144.154,167.907 145.411,167.907C146.742,167.907 147.936,168.146 148.992,168.623C150.047,169.101 150.933,169.735 151.649,170.527C152.365,171.318 152.912,172.248 153.289,173.316C153.665,174.384 153.854,175.521 153.854,176.727L153.854,177.858L139.154,177.858Z" style="fill:url(#_Linear5);fill-rule:nonzero;"/>
                    <path d="M171.231,172.506C170.803,171.852 170.207,171.3 169.44,170.847C168.674,170.395 167.8,170.169 166.82,170.169C165.79,170.144 164.867,170.307 164.05,170.659C163.233,171.011 162.536,171.501 161.958,172.129C161.38,172.757 160.94,173.505 160.639,174.372C160.337,175.239 160.186,176.175 160.186,177.18C160.186,178.185 160.337,179.121 160.639,179.988C160.94,180.855 161.38,181.602 161.958,182.231C162.536,182.859 163.233,183.349 164.05,183.701C164.867,184.053 165.79,184.216 166.82,184.191C167.8,184.191 168.674,183.965 169.44,183.512C170.207,183.06 170.803,182.507 171.231,181.854L173.266,183.399C172.386,184.429 171.394,185.19 170.288,185.68C169.183,186.17 168.027,186.427 166.82,186.452C165.388,186.477 164.094,186.258 162.938,185.793C161.782,185.328 160.796,184.681 159.979,183.851C159.162,183.022 158.54,182.036 158.113,180.893C157.686,179.749 157.472,178.512 157.472,177.18C157.472,175.848 157.686,174.61 158.113,173.467C158.54,172.324 159.162,171.337 159.979,170.508C160.796,169.679 161.782,169.032 162.938,168.567C164.094,168.102 165.388,167.882 166.82,167.907C168.027,167.932 169.183,168.19 170.288,168.68C171.394,169.17 172.386,169.93 173.266,170.96L171.231,172.506Z" style="fill:url(#_Linear6);fill-rule:nonzero;"/>
                    <path d="M176.545,157.504L179.033,157.504L179.033,171.187L179.108,171.187C179.385,170.709 179.737,170.269 180.164,169.867C180.591,169.465 181.068,169.12 181.596,168.831C182.124,168.542 182.683,168.316 183.274,168.152C183.864,167.989 184.448,167.907 185.026,167.907C187.288,167.907 188.959,168.504 190.039,169.698C191.12,170.891 191.66,172.594 191.66,174.805L191.66,186L189.173,186L189.173,176.237C189.173,174.277 188.833,172.776 188.155,171.733C187.476,170.69 186.22,170.169 184.385,170.169C184.26,170.169 183.908,170.219 183.33,170.32C182.752,170.42 182.143,170.697 181.502,171.149C180.861,171.601 180.289,172.28 179.787,173.184C179.284,174.089 179.033,175.345 179.033,176.954L179.033,186L176.545,186L176.545,157.504Z" style="fill:url(#_Linear7);fill-rule:nonzero;"/>
                </g>
                <g>
                    <g transform="matrix(0.5,0,0,0.5,0,-10.8151)">
                        <rect x="31.223" y="361" width="8" height="8" style="fill:url(#_Linear8);"/>
                    </g>
                    <g transform="matrix(0.5,0,0,0.5,21.3448,-10.8151)">
                        <rect x="31.223" y="361" width="8" height="8" style="fill:rgb(230,79,0);"/>
                    </g>
                    <g transform="matrix(0.5,0,0,0.5,42.6896,-10.8151)">
                        <rect x="31.223" y="361" width="8" height="8" style="fill:rgb(255,170,0);"/>
                    </g>
                    <g transform="matrix(0.5,0,0,0.5,64.0344,-10.8151)">
                        <rect x="31.223" y="361" width="8" height="8" style="fill:rgb(0,133,90);"/>
                    </g>
                    <g transform="matrix(0.5,0,0,0.5,85.3792,-10.8151)">
                        <rect x="31.223" y="361" width="8" height="8" style="fill:url(#_Linear9);"/>
                    </g>
                    <g transform="matrix(0.5,0,0,0.5,106.724,-10.8151)">
                        <rect x="31.223" y="361" width="8" height="8" style="fill:url(#_Linear10);"/>
                    </g>
                </g>
            </g>
        </g>
    </g>
    <defs>
        <linearGradient id="_Linear1" x1="0" y1="0" x2="1" y2="0" gradientUnits="userSpaceOnUse" gradientTransform="matrix(145.722,0,0,145.722,61.317,172.807)"><stop offset="0" style="stop-color:black;stop-opacity:1"/><stop offset="1" style="stop-color:rgb(77,77,77);stop-opacity:1"/></linearGradient>
        <linearGradient id="_Linear2" x1="0" y1="0" x2="1" y2="0" gradientUnits="userSpaceOnUse" gradientTransform="matrix(145.722,0,0,145.722,61.317,172.807)"><stop offset="0" style="stop-color:black;stop-opacity:1"/><stop offset="1" style="stop-color:rgb(77,77,77);stop-opacity:1"/></linearGradient>
        <linearGradient id="_Linear3" x1="0" y1="0" x2="1" y2="0" gradientUnits="userSpaceOnUse" gradientTransform="matrix(145.722,0,0,145.722,61.317,172.807)"><stop offset="0" style="stop-color:black;stop-opacity:1"/><stop offset="1" style="stop-color:rgb(77,77,77);stop-opacity:1"/></linearGradient>
        <linearGradient id="_Linear4" x1="0" y1="0" x2="1" y2="0" gradientUnits="userSpaceOnUse" gradientTransform="matrix(145.722,0,0,145.722,61.317,172.807)"><stop offset="0" style="stop-color:black;stop-opacity:1"/><stop offset="1" style="stop-color:rgb(77,77,77);stop-opacity:1"/></linearGradient>
        <linearGradient id="_Linear5" x1="0" y1="0" x2="1" y2="0" gradientUnits="userSpaceOnUse" gradientTransform="matrix(145.722,0,0,145.722,61.317,172.807)"><stop offset="0" style="stop-color:black;stop-opacity:1"/><stop offset="1" style="stop-color:rgb(77,77,77);stop-opacity:1"/></linearGradient>
        <linearGradient id="_Linear6" x1="0" y1="0" x2="1" y2="0" gradientUnits="userSpaceOnUse" gradientTransform="matrix(145.722,0,0,145.722,61.317,172.807)"><stop offset="0" style="stop-color:black;stop-opacity:1"/><stop offset="1" style="stop-color:rgb(77,77,77);stop-opacity:1"/></linearGradient>
        <linearGradient id="_Linear7" x1="0" y1="0" x2="1" y2="0" gradientUnits="userSpaceOnUse" gradientTransform="matrix(145.722,0,0,145.722,61.317,172.807)"><stop offset="0" style="stop-color:black;stop-opacity:1"/><stop offset="1" style="stop-color:rgb(77,77,77);stop-opacity:1"/></linearGradient>
        <linearGradient id="_Linear8" x1="0" y1="0" x2="1" y2="0" gradientUnits="userSpaceOnUse" gradientTransform="matrix(-8.00003,4.08346e-14,-9.79721e-16,-333.439,39.2227,364.999)"><stop offset="0" style="stop-color:rgb(230,0,77);stop-opacity:1"/><stop offset="1" style="stop-color:rgb(230,79,0);stop-opacity:1"/></linearGradient>
        <linearGradient id="_Linear9" x1="0" y1="0" x2="1" y2="0" gradientUnits="userSpaceOnUse" gradientTransform="matrix(-8.00003,4.08346e-14,-9.79721e-16,-333.439,39.2227,364.999)"><stop offset="0" style="stop-color:rgb(31,105,255);stop-opacity:1"/><stop offset="0.67" style="stop-color:rgb(40,98,255);stop-opacity:1"/><stop offset="0.85" style="stop-color:rgb(65,79,255);stop-opacity:1"/><stop offset="1" style="stop-color:rgb(97,56,255);stop-opacity:1"/></linearGradient>
        <linearGradient id="_Linear10" x1="0" y1="0" x2="1" y2="0" gradientUnits="userSpaceOnUse" gradientTransform="matrix(-8.00003,4.08346e-14,-9.79721e-16,-333.439,39.2227,364.999)"><stop offset="0" style="stop-color:rgb(97,56,255);stop-opacity:1"/><stop offset="1" style="stop-color:rgb(97,56,255);stop-opacity:1"/></linearGradient>
    </defs>
</svg>
